<?xml version="1.0" standalone="no"?>
<!DOCTYPE svg PUBLIC "-//W3C//DTD SVG 20010904//EN"
 "http://www.w3.org/TR/2001/REC-SVG-20010904/DTD/svg10.dtd">
<svg version="1.0" xmlns="http://www.w3.org/2000/svg"
 width="1536.000000pt" height="1024.000000pt" viewBox="0 0 1536.000000 1024.000000"
 preserveAspectRatio="xMidYMid meet">

<g transform="translate(0.000000,1024.000000) scale(0.100000,-0.100000)"
fill="#000000" stroke="none">
<path d="M5609 8136 c-115 -32 -230 -121 -292 -226 -61 -105 -57 76 -57 -2680
0 -2757 -4 -2569 58 -2684 37 -69 125 -154 199 -194 117 -62 114 -62 1016 -62
l817 0 0 -600 0 -600 333 2 332 3 3 598 2 597 818 0 c889 0 893 1 1008 57 118
58 219 190 244 318 8 44 10 734 8 2600 l-3 2540 -27 59 c-59 125 -152 212
-276 259 l-57 22 -2040 2 c-1624 1 -2049 -1 -2086 -11z m4112 -373 l39 -42 0
-2493 c0 -2396 -1 -2495 -18 -2527 -10 -19 -34 -43 -53 -53 -32 -17 -115 -18
-2002 -18 -2193 0 -2008 -6 -2065 68 l-27 35 -3 2490 c-2 2480 -2 2490 18
2522 43 70 -132 65 2078 62 l1993 -2 40 -42z"/>
<path d="M7462 7480 c-30 -13 -42 -48 -42 -123 0 -34 -3 -86 -7 -116 -6 -50
-8 -54 -42 -68 -20 -8 -79 -35 -133 -60 l-96 -46 -92 81 c-100 89 -137 105
-186 79 -45 -24 -281 -268 -289 -300 -12 -45 2 -73 81 -163 53 -62 73 -91 68
-103 -4 -9 -26 -68 -50 -131 l-42 -115 -132 -5 c-122 -5 -133 -7 -150 -28 -27
-33 -33 -88 -29 -281 l4 -171 28 -27 c27 -27 31 -28 155 -32 l127 -3 46 -125
46 -125 -73 -86 c-41 -48 -77 -97 -80 -109 -13 -48 8 -79 150 -220 135 -137
144 -143 182 -143 36 0 51 9 139 84 l98 84 96 -48 c53 -26 112 -53 132 -59 34
-11 37 -15 43 -64 3 -29 6 -75 6 -103 0 -62 14 -105 39 -121 26 -17 387 -29
423 -15 48 20 61 53 66 174 l5 110 36 15 c20 8 82 36 138 63 l102 48 68 -62
c102 -93 122 -106 161 -106 32 0 49 13 179 142 78 78 146 151 149 161 13 41
-7 83 -82 166 -51 58 -73 90 -68 100 4 9 25 66 46 128 l40 111 129 4 c125 3
129 4 156 31 l28 27 0 215 c0 274 10 258 -176 265 l-131 5 -42 120 c-23 66
-45 126 -49 132 -5 7 23 46 69 98 66 74 77 91 82 130 l5 45 -149 150 c-139
140 -152 150 -186 150 -32 0 -49 -10 -109 -62 -40 -35 -84 -73 -100 -86 l-28
-23 -78 39 c-43 22 -100 47 -126 57 -26 10 -50 22 -54 28 -3 5 -9 58 -13 117
-9 113 -18 143 -49 159 -26 14 -410 24 -439 11z m340 -781 c204 -42 383 -222
428 -431 18 -82 8 -238 -20 -313 -65 -172 -211 -304 -386 -350 -75 -19 -213
-19 -289 0 -192 50 -353 217 -400 416 -30 130 -17 245 46 376 67 141 207 256
360 297 65 18 189 20 261 5z"/>
<path d="M6171 4452 c-93 -47 -94 -208 -1 -254 33 -17 126 -18 1515 -18 1450
0 1481 0 1512 20 18 10 39 33 48 49 22 43 19 119 -5 159 -40 66 59 62 -1562
62 -1383 0 -1475 -1 -1507 -18z"/>
<path d="M6634 3851 c-50 -31 -64 -58 -64 -127 0 -71 21 -107 76 -130 51 -21
2009 -21 2059 0 47 20 75 69 75 131 0 62 -15 93 -59 122 l-34 23 -1011 0
c-978 0 -1012 -1 -1042 -19z"/>
<path d="M6664 3269 c-18 -5 -46 -25 -63 -44 -27 -32 -31 -43 -31 -97 0 -57 2
-63 38 -98 31 -32 47 -39 92 -45 30 -3 370 -5 755 -3 652 3 702 4 733 21 53
29 74 72 69 141 -3 53 -7 62 -40 92 l-37 34 -722 0 c-398 0 -732 2 -743 4 -11
3 -34 0 -51 -5z"/>
</g>
</svg>
