<?xml version="1.0" standalone="no"?>
<!DOCTYPE svg PUBLIC "-//W3C//DTD SVG 20010904//EN"
 "http://www.w3.org/TR/2001/REC-SVG-20010904/DTD/svg10.dtd">
<svg version="1.0" xmlns="http://www.w3.org/2000/svg"
 width="1536.000000pt" height="1024.000000pt" viewBox="0 0 1536.000000 1024.000000"
 preserveAspectRatio="xMidYMid meet">

<g transform="translate(0.000000,1024.000000) scale(0.100000,-0.100000)"
fill="#000000" stroke="none">
<path d="M7377 8425 c-622 -88 -1186 -406 -1579 -891 -87 -107 -219 -309 -280
-430 -186 -364 -268 -706 -268 -1114 0 -307 39 -552 131 -825 177 -527 537
-978 1024 -1284 127 -80 384 -206 395 -195 4 5 114 313 243 684 l234 675 -78
41 c-197 103 -347 258 -444 459 -79 162 -111 345 -94 538 33 388 290 723 659
858 139 50 210 62 370 62 124 0 159 -4 244 -26 367 -98 646 -377 742 -742 23
-86 27 -120 27 -250 0 -130 -3 -163 -26 -247 -31 -117 -90 -247 -153 -334 -96
-135 -253 -266 -389 -325 -45 -20 -53 -27 -49 -44 4 -11 58 -168 121 -350 63
-181 167 -481 230 -665 64 -184 119 -339 124 -344 10 -11 259 110 389 189 321
195 627 500 818 816 184 305 307 671 343 1018 17 164 6 555 -19 691 -49 262
-111 450 -222 675 -358 729 -1017 1222 -1805 1351 -138 22 -554 28 -688 9z"/>
</g>
</svg>
