<?xml version="1.0" standalone="no"?>
<!DOCTYPE svg PUBLIC "-//W3C//DTD SVG 20010904//EN"
 "http://www.w3.org/TR/2001/REC-SVG-20010904/DTD/svg10.dtd">
<svg version="1.0" xmlns="http://www.w3.org/2000/svg"
 width="1536.000000pt" height="1024.000000pt" viewBox="0 0 1536.000000 1024.000000"
 preserveAspectRatio="xMidYMid meet">

<g transform="translate(0.000000,1024.000000) scale(0.100000,-0.100000)"
fill="#000000" stroke="none">
<path d="M8575 8256 c-36 -16 -70 -52 -83 -87 -6 -14 -16 -86 -22 -160 l-13
-135 -86 -29 c-47 -16 -124 -49 -171 -72 -47 -24 -85 -43 -85 -43 -1 0 -52 38
-115 85 -133 99 -169 113 -233 96 -38 -11 -74 -43 -256 -227 -132 -133 -218
-228 -227 -251 -30 -70 1 -132 136 -277 l60 -64 -40 -87 c-22 -48 -52 -125
-66 -171 -30 -95 -21 -89 -152 -99 -128 -10 -191 -29 -229 -70 l-33 -35 0
-319 c0 -302 1 -320 20 -343 30 -39 88 -57 217 -68 65 -6 125 -13 133 -15 9
-3 28 -42 44 -91 16 -47 46 -120 67 -162 35 -72 36 -77 21 -97 -10 -11 -49
-59 -88 -105 -39 -47 -76 -95 -83 -107 -15 -30 -14 -109 3 -141 8 -15 110
-122 228 -239 180 -179 219 -212 251 -218 68 -13 99 0 203 91 55 47 108 90
120 96 17 8 36 2 103 -31 45 -23 121 -55 169 -71 l87 -29 11 -125 c14 -152 19
-172 50 -213 46 -60 74 -64 419 -61 343 3 358 6 390 69 9 16 26 95 38 176 l23
146 136 57 c75 31 148 64 162 73 14 10 30 17 35 17 6 0 51 -34 101 -76 50 -41
107 -86 127 -100 70 -47 154 -25 233 63 24 26 112 118 195 204 162 165 182
197 172 271 -5 38 -62 123 -149 223 l-35 39 38 71 c20 38 52 112 71 164 23 65
39 96 53 101 11 4 66 13 123 19 120 13 158 27 195 71 l28 32 -3 320 -3 320
-38 34 c-43 37 -97 51 -216 60 -120 8 -114 5 -140 86 -13 40 -43 117 -68 170
-33 69 -43 101 -36 110 6 7 41 51 78 97 37 47 76 98 86 115 21 35 25 105 8
139 -16 31 -409 425 -441 443 -15 8 -49 14 -76 14 -53 0 -78 -13 -219 -116
l-82 -60 -78 37 c-43 20 -118 51 -168 68 -49 18 -91 34 -93 36 -2 2 -14 71
-27 155 -14 88 -30 161 -40 176 -9 14 -35 34 -58 45 -38 17 -69 19 -347 18
-232 0 -312 -3 -335 -13z m590 -712 c111 -18 164 -35 282 -90 358 -165 615
-472 713 -849 30 -115 38 -355 16 -490 -87 -530 -492 -938 -1023 -1030 -164
-29 -396 -14 -570 35 -415 116 -753 462 -859 879 -149 585 121 1164 671 1438
240 120 482 153 770 107z"/>
<path d="M9442 6968 c-13 -6 -139 -153 -280 -326 -141 -174 -301 -369 -355
-435 l-99 -119 -171 170 c-137 135 -180 172 -212 181 -49 13 -51 13 -97 1
-109 -31 -169 -161 -118 -259 29 -58 520 -533 567 -549 48 -17 110 -8 151 21
34 24 841 1008 865 1054 14 27 21 74 18 121 -1 26 -82 117 -123 138 -32 16
-113 17 -146 2z"/>
<path d="M6351 6184 c-94 -25 -155 -74 -190 -155 -11 -25 -32 -112 -46 -195
-14 -82 -37 -192 -51 -244 -34 -128 -125 -309 -227 -450 -293 -405 -354 -494
-438 -631 -105 -173 -151 -229 -213 -259 -40 -19 -61 -20 -332 -20 -402 0
-443 -9 -480 -97 -21 -49 -21 -1708 0 -1758 29 -69 34 -69 481 -75 464 -6 409
5 703 -135 186 -88 273 -116 415 -135 55 -8 317 -10 792 -7 632 3 717 5 774
20 155 42 259 120 315 237 27 58 31 76 31 157 l1 92 56 59 c30 32 65 77 77
100 68 133 68 352 1 469 l-19 33 30 32 c72 77 103 189 97 347 -5 125 -28 194
-89 271 l-39 50 29 52 c57 100 76 245 50 370 -30 145 -134 277 -269 341 -130
62 -178 67 -634 67 -223 0 -407 4 -410 9 -3 5 17 85 44 179 156 532 155 832
-4 1071 -75 113 -159 176 -271 205 -72 19 -113 19 -184 0z m137 -258 c104 -55
172 -222 172 -424 0 -128 -21 -235 -102 -522 -74 -261 -83 -341 -46 -410 16
-30 39 -53 69 -70 l44 -25 475 -6 c494 -6 522 -9 606 -52 39 -20 92 -80 111
-124 15 -38 19 -122 8 -174 -11 -49 -53 -128 -83 -156 -15 -14 -48 -36 -73
-48 -59 -30 -72 -47 -72 -93 0 -76 55 -122 145 -122 66 0 91 -16 113 -74 24
-63 18 -194 -11 -233 -28 -38 -76 -69 -146 -95 -73 -26 -98 -56 -98 -115 0
-76 43 -113 132 -113 32 0 41 -5 57 -31 26 -43 34 -110 21 -175 -19 -92 -87
-151 -202 -175 -70 -15 -108 -53 -108 -107 0 -50 24 -80 81 -101 41 -16 44
-19 43 -54 -2 -78 -62 -119 -201 -138 -114 -15 -1411 -6 -1478 10 -103 25
-154 46 -329 128 -110 53 -215 94 -275 110 -94 25 -103 26 -408 24 l-313 -1 0
705 0 705 263 0 c291 0 334 6 441 63 86 45 171 134 240 252 92 155 195 310
313 472 276 375 348 491 402 640 30 81 67 237 96 407 23 129 48 156 113 122z"/>
</g>
</svg>
